<!-- Generated by IcoMoon.io -->
<svg version="1.1" xmlns="http://www.w3.org/2000/svg" width="1011" height="1024" viewBox="0 0 1011 1024">
<g id="icomoon-ignore">
</g>
<path d="M553.098 102.243c12.148-1.302 26.225 1.234 37.926 4.556 26.476 7.515 47.986 23.607 60.754 46.58 13.264 23.547 15.81 51.071 7.062 76.383-11.111 31.219-34.931 46.918-64.692 61.345l0.334 91.050c21.266 6.042 41.961 12.881 61.272 23.308 44.383 23.973 74.741 64.401 87.469 110.396 13.455 48.23 5.804 99.48-21.271 142.469-24.834 38.965-64.435 67.742-111.84 78.766-61.925 14.417-114.443-1.196-167.667-30.68-23.527 23.439-46.774 47.144-69.715 71.098 10.256 22.543 13.653 46.194 6.852 70.149-6.65 23.418-24.262 43.482-46.79 55.345-25.243 13.312-54.004 15.738-81.68 8.358-27.466-7.323-50.551-23.179-63.975-47-13.212-23.419-14.331-50.861-5.766-75.863 9.746-28.418 29.599-45.926 57.507-58.914 30.036-10.947 54.865-7.348 84.185 2.494 24.412-23.936 47.397-49.077 72.061-72.803-27.106-49.53-35.894-91.718-21.802-146.297-30.686-13.347-60.271-28.888-90.975-42.258-16.407 15.912-36.461 26.825-60.011 30.518-28.087 4.406-57.704-2.734-80.79-18.098-22.874-15.44-37.922-38.971-41.618-65.062-3.793-25.302 3.35-53.192 20.741-73.16 17.932-20.593 45.764-33.009 73.865-35.753 27.613-2.507 55.167 5.339 76.555 21.802 27.347 21.341 35.24 47.864 38.555 79.481 29.106 16.627 62.439 29.451 92.766 44.296 39.457-43.462 68.279-57.173 125.79-73.691l0.049-90.359c-10.294-3.838-20.572-8.511-29.543-14.655-22.69-15.638-37.592-39.198-41.271-65.271-3.402-25.941 4.46-52.081 21.839-72.593 18.992-22.199 44.378-32.307 73.827-35.939zM679.888 551.738c-5.851-62.164-64.463-108.256-131.21-103.198-67.343 5.106-117.358 60.307-111.457 123.011 5.904 62.728 65.47 108.978 132.741 103.086 66.674-5.854 115.776-60.745 109.926-122.9z"></path>
<path d="M872.84 400.777c2.847-0.131 5.611-0.169 8.444 0.212 8.853 1.196 17.576 5.179 22.452 12.422 5.173 7.684 5.881 17.916 6.589 26.817 3.511 44.052 0.903 89.882 0.891 134.091-0.010 36.104 4.284 85.063-2.911 119.832-2.264 10.928-10.042 16.154-19.356 22.067-3.547 0.401-7.26 0.858-10.838 0.667-7.994-0.42-15.565-3.738-20.734-9.422-5.111-5.626-4.963-16.917-5.416-23.974-3.248-50.675-0.502-102.971-0.453-153.798 0.029-28.883-4.233-84.174 2.284-109.95 2.331-9.222 11.253-14.055 19.048-18.964z"></path>
<path d="M791.245 471.556c9.593 1.647 18.079 5.006 23.67 12.768 8.622 11.976 8.854 129.303 4.536 146.049-2.363 9.154-10.863 13.617-18.923 18.022-9.229-0.515-21.361-1.278-27.525-8.734-9.172-11.082-8.412-135.779-3.191-151.415 3.034-9.086 13.059-12.928 21.433-16.69z"></path>
</svg>
