<svg width="107" height="31" viewBox="0 0 107 31" fill="none" xmlns="http://www.w3.org/2000/svg">
<path d="M15.8906 0.638315C16.3108 0.590015 16.7975 0.683949 17.2022 0.807261C18.1178 1.08622 18.8622 1.68302 19.3037 2.53578C19.7625 3.40987 19.8504 4.43205 19.5479 5.37171C19.1636 6.53063 18.3389 7.11346 17.3096 7.64906L17.3213 11.0289C18.0568 11.2532 18.7726 11.5071 19.4404 11.8942C20.9755 12.784 22.0256 14.2845 22.4658 15.9918C22.9312 17.7823 22.667 19.6851 21.7305 21.2809C20.8715 22.7273 19.5019 23.7955 17.8623 24.2047C15.7203 24.74 13.9035 24.1596 12.0625 23.0651C11.2487 23.9352 10.4449 24.8155 9.65137 25.7047C10.0061 26.5416 10.1239 27.42 9.88868 28.3092C9.6587 29.1785 9.04964 29.9235 8.27051 30.3639C7.39742 30.858 6.40251 30.9474 5.44532 30.6735C4.4954 30.4016 3.69674 29.8135 3.23243 28.9293C2.77543 28.0599 2.73694 27.0411 3.03321 26.1129C3.37027 25.0581 4.05628 24.4076 5.02149 23.9254C6.06035 23.5191 6.91953 23.6529 7.9336 24.0182C8.77785 23.1298 9.57282 22.1967 10.4258 21.316C9.48829 19.4775 9.1845 17.9113 9.67188 15.8854C8.61056 15.3899 7.58736 14.8124 6.52539 14.316C5.95787 14.9069 5.26391 15.3118 4.44922 15.4489C3.47779 15.6123 2.45375 15.3474 1.65528 14.777C0.864179 14.2038 0.343608 13.3305 0.215824 12.3619C0.0847066 11.4228 0.332224 10.3883 0.933597 9.6471C1.55387 8.88261 2.51628 8.42079 3.48828 8.31898C4.44329 8.22596 5.39599 8.51751 6.13575 9.12855C7.08151 9.9207 7.35501 10.9052 7.46973 12.0787C8.47638 12.6959 9.62881 13.1722 10.6777 13.7233C12.0425 12.1099 13.0401 11.6011 15.0293 10.9879L15.0303 7.63343C14.6743 7.49094 14.319 7.31752 14.0088 7.08949C13.224 6.50893 12.7083 5.63453 12.5811 4.66664C12.4634 3.70374 12.7359 2.73373 13.3369 1.9723C13.9939 1.1482 14.872 0.773117 15.8906 0.638315ZM20.2764 17.3248C20.074 15.0172 18.0459 13.306 15.7373 13.4938C13.4082 13.6835 11.6786 15.7325 11.8828 18.0602C12.0871 20.3886 14.147 22.105 16.4736 21.8864C18.7796 21.669 20.4785 19.632 20.2764 17.3248Z" fill="#764191"/>
<path d="M98.917 12.0842C99.603 12.0851 100.289 12.0941 100.975 12.1115L100.971 15.7375C101.499 15.3266 102.075 15.0201 102.744 14.9201C103.648 14.7833 104.57 15.0178 105.299 15.5695C106.179 16.2349 106.641 17.3546 106.774 18.425C106.944 19.7829 106.625 21.0886 105.787 22.1711C105.231 22.7076 104.564 23.0831 103.795 23.2092C102.666 23.3947 101.771 22.9998 100.891 22.343L100.887 23.135L98.918 23.1311L98.917 12.0842ZM102.443 16.8352C101.832 17.0383 101.406 17.3285 101.108 17.9172C100.777 18.5707 100.754 19.3787 101.013 20.0598C101.21 20.5813 101.58 21.0327 102.095 21.2649C102.469 21.4341 102.821 21.4393 103.224 21.4153C103.862 21.1738 104.292 20.8641 104.581 20.2248C104.883 19.5572 104.878 18.7522 104.592 18.0803C104.372 17.5635 103.98 17.1472 103.452 16.9426C103.122 16.8152 102.791 16.7984 102.443 16.8352Z" fill="#764191"/>
<path d="M39.9814 12.0632C41.1884 15.7832 42.733 19.4021 43.9102 23.1325L41.6855 23.1345C41.4248 22.338 41.1733 21.4372 40.7754 20.7009C40.5154 20.5897 40.2077 20.627 39.9297 20.6306C38.8568 20.6412 37.7837 20.6382 36.7109 20.6198C36.3741 21.4417 36.1026 22.2868 35.8359 23.1335L33.5703 23.1315C34.7536 19.4182 36.1641 15.7522 37.4414 12.0681C38.2864 12.0864 39.1361 12.0666 39.9814 12.0632ZM38.7129 14.8132C38.2445 16.1447 37.8077 17.4945 37.2949 18.8093L38.9238 18.8083L40.1895 18.7946C40.0117 18.2941 38.9786 15.0351 38.7129 14.8132Z" fill="#764191"/>
<path d="M86.8819 12.0869L89.0094 12.0997C88.9804 14.6642 89.003 17.2323 89.0023 19.7967C89.0016 20.8551 89.1092 22.012 88.9903 23.0563L88.8735 23.1363H86.8797L86.8755 18.4005C85.2818 18.3559 83.6761 18.3956 82.081 18.3977L82.0817 23.1384L79.9414 23.1342L79.9499 12.0899L82.0817 12.0948L82.0831 16.6107H86.8847L86.8819 12.0869Z" fill="#764191"/>
<path d="M90.2896 15.1482C90.9955 15.1684 91.7035 15.161 92.4093 15.1649C92.4008 16.2935 92.2224 19.4115 92.4957 20.3447C92.6033 20.7128 92.8185 21.0498 93.1669 21.229C93.6908 21.498 94.2232 21.3422 94.7436 21.1596C94.9744 20.9019 95.1726 20.6604 95.2866 20.3277C95.6604 19.2395 95.4608 16.4465 95.4551 15.1519C96.1277 15.1699 96.8024 15.1558 97.475 15.1523C97.4595 15.9276 97.4722 16.7056 97.4708 17.4816L97.4814 23.1328C96.8201 23.1427 96.1589 23.1377 95.4983 23.1179L95.4374 23.0464C95.4473 22.8786 95.4495 22.7419 95.4197 22.5749C94.8002 22.8432 94.2487 23.2503 93.5442 23.2645C92.7272 23.2807 91.8408 23.0273 91.2546 22.4396C90.81 21.995 90.5388 21.3968 90.3993 20.79C90.0991 19.4845 90.2761 16.593 90.2896 15.1482Z" fill="#764191"/>
<path d="M61.6956 14.9257C62.7505 14.8431 63.8501 14.9176 64.7025 15.6282C65.3 16.1258 65.4933 16.7233 65.5577 17.466L63.6511 17.4638C63.5414 17.2599 63.4316 17.0235 63.2596 16.8642C62.9849 16.6107 62.587 16.479 62.2153 16.4988C61.9264 16.5144 61.5576 16.6298 61.3777 16.8741C61.2687 17.0228 61.2085 17.1757 61.2503 17.3612C61.4669 18.3389 63.9527 18.2179 64.7442 18.7354C65.2476 19.0653 65.6342 19.6565 65.7461 20.2463C65.8579 20.8495 65.7142 21.4725 65.3503 21.966C64.7428 22.8035 63.8069 23.1044 62.8327 23.2538C61.9307 23.3083 60.885 23.0662 60.1628 22.5168C59.486 22.0014 59.2424 21.3691 59.1504 20.5549C59.7925 20.5564 60.4354 20.55 61.0775 20.5372C61.1151 20.6583 61.1568 20.7751 61.2177 20.887C61.4974 21.4031 62.056 21.5178 62.5735 21.67C62.9155 21.5914 63.3785 21.5037 63.6214 21.2275C63.7679 21.0605 63.8189 20.7709 63.7573 20.5585C63.5201 19.7415 61.1384 19.6452 60.3122 19.1368C59.823 18.8352 59.4633 18.3963 59.3331 17.8299C59.2155 17.3166 59.2601 16.7396 59.549 16.29C60.0701 15.4761 60.7894 15.1418 61.6956 14.9257Z" fill="#764191"/>
<path d="M74.5252 14.9234C75.1256 14.8748 75.7139 14.8781 76.2994 15.0364C76.9749 15.2192 77.692 15.5965 78.0333 16.2362C78.1976 16.5428 78.3236 17.0943 78.2131 17.4348C77.6659 17.5531 76.9975 17.4731 76.4354 17.4667C76.3525 17.1884 76.2824 16.9739 76.0566 16.7813C75.7706 16.542 75.3989 16.4288 75.0279 16.4691C74.7376 16.4989 74.3645 16.6419 74.2023 16.9017C74.1054 17.0568 74.0657 17.2161 74.1266 17.3945C74.4778 18.4289 76.5826 18.1832 77.4011 18.6505C77.9222 18.9485 78.3583 19.4724 78.5062 20.0587C78.6655 20.6881 78.5601 21.3876 78.1969 21.9292C77.6545 22.7377 76.7929 23.0421 75.8838 23.2184C74.9911 23.3289 73.9574 23.1391 73.2112 22.6244C72.4451 22.0963 72.215 21.4336 72.043 20.5677L73.9546 20.5535C74.0707 20.8459 74.1762 21.0739 74.424 21.2764C74.7539 21.5469 75.1454 21.6693 75.5709 21.6127C75.9008 21.5688 76.2258 21.4173 76.4233 21.1412C76.5522 20.9599 76.6166 20.7397 76.555 20.5196C76.3157 19.6693 74.2052 19.7224 73.3676 19.2714C72.8019 18.9662 72.3538 18.4593 72.1747 17.837C72.0224 17.3102 72.0862 16.7615 72.3644 16.2879C72.8267 15.5034 73.6749 15.1196 74.5252 14.9234Z" fill="#764191"/>
<path d="M50.9955 12.9556C51.6299 12.9775 52.2692 12.964 52.9043 12.9667C52.8972 13.6833 52.9078 14.4 52.9354 15.1161L54.8187 15.1173L54.8145 16.7587L53.0211 16.758C53.0218 17.7909 52.7854 20.4558 53.2597 21.2537C53.63 21.5454 54.3691 21.4364 54.8187 21.4314L54.8123 22.7915C54.8166 22.9317 54.8159 23.0025 54.7444 23.125C54.4937 23.2453 54.2367 23.2722 53.9599 23.2743C53.2314 23.2807 52.2253 23.149 51.7014 22.6032C50.6493 21.5079 50.9856 18.2851 50.9906 16.7566L49.7754 16.7587L49.779 15.1135L50.9892 15.1217L50.9955 12.9556Z" fill="#764191"/>
<path d="M67.366 12.9466L69.2393 12.9573C69.2252 13.6751 69.2549 14.3963 69.2684 15.1141L71.1821 15.1103L71.1792 16.7594L69.3781 16.758C69.4001 17.7414 69.1593 20.4877 69.6047 21.2311C70.0833 21.5171 70.6829 21.4406 71.221 21.4392C71.2146 21.9129 71.2239 22.3879 71.226 22.8623L71.2033 23.0421C71.0178 23.2382 70.7325 23.2297 70.4797 23.2361C69.7102 23.2545 68.6475 23.1327 68.0896 22.5487C67.0481 21.4583 67.3724 18.2809 67.3816 16.7573L66.1001 16.758C66.0838 16.2121 66.0902 15.6645 66.0859 15.1186L67.3625 15.1252L67.366 12.9466Z" fill="#764191"/>
<path d="M26.9502 11.7198C27.0487 11.7149 27.1443 11.7135 27.2423 11.7276C27.5485 11.772 27.8502 11.9199 28.0189 12.1887C28.1978 12.474 28.2223 12.8538 28.2468 13.1842C28.3682 14.8196 28.278 16.5208 28.2776 18.1619C28.2772 19.5022 28.4258 21.3196 28.1769 22.6103C28.0986 23.0159 27.8296 23.2099 27.5074 23.4294C27.3847 23.4443 27.2563 23.4613 27.1325 23.4542C26.8561 23.4386 26.5942 23.3154 26.4154 23.1044C26.2386 22.8956 26.2437 22.4764 26.2281 22.2145C26.1157 20.3334 26.2107 18.392 26.2124 16.5052C26.2134 15.433 26.066 13.3806 26.2915 12.4237C26.3721 12.0814 26.6806 11.902 26.9502 11.7198Z" fill="#764191"/>
<path d="M48.6737 15.0874L48.9428 15.0843C49.2619 15.441 49.1035 16.5711 49.0933 17.0391C48.4191 17.032 47.7815 17.0051 47.2534 17.495C46.2624 18.414 46.5965 21.7819 46.5866 23.1335C46.0554 23.1285 45.0206 23.3225 44.6148 22.9848L44.5936 22.6499C44.6033 20.145 44.5403 17.6423 44.5563 15.1378C45.1994 15.1578 45.8446 15.1442 46.488 15.1407L46.4654 16.2468C46.5847 16.0755 46.7032 15.8921 46.8417 15.7359C47.3293 15.186 47.9905 15.1362 48.6737 15.0874Z" fill="#764191"/>
<path d="M55.9891 15.1205L58.0097 15.1213L58.0147 23.1377L55.9707 23.1349L55.9891 15.1205Z" fill="#764191"/>
<path d="M24.1281 14.3465C24.4599 14.4076 24.7534 14.5323 24.9468 14.8205C25.245 15.265 25.253 19.6204 25.1036 20.242C25.0219 20.5818 24.7279 20.7475 24.4492 20.911C24.1299 20.8919 23.7103 20.8636 23.4971 20.5868C23.1799 20.1754 23.2062 15.5465 23.3868 14.966C23.4917 14.6287 23.8385 14.4862 24.1281 14.3465Z" fill="#764191"/>
<path d="M56.8658 11.8177C57.4662 11.7472 58.0142 12.1668 58.102 12.7648C58.1905 13.3628 57.7869 13.9225 57.1922 14.0283C56.7908 14.0995 56.383 13.9471 56.1274 13.6304C55.8711 13.3138 55.8081 12.883 55.9617 12.5059C56.1153 12.1289 56.4615 11.8652 56.8658 11.8177Z" fill="#764191"/>
</svg>
